<svg width="150" height="50" viewBox="0 0 150 50" fill="none" xmlns="http://www.w3.org/2000/svg">
<path d="M79.215 42.8275C33.7719 32.7363 1.56216 47.7953 0.232561 44.4225C-1.21081 38.6645 9.1261 30.6129 28.5928 22.3329C28.662 22.3027 28.7365 22.2863 28.8119 22.2847C28.8874 22.283 28.9624 22.2961 29.0326 22.3233C29.1029 22.3504 29.167 22.3911 29.2213 22.4429C29.2756 22.4947 29.319 22.5566 29.3491 22.6252C29.3791 22.6938 29.3952 22.7676 29.3965 22.8425C29.3978 22.9174 29.3842 22.9919 29.3564 23.0616C29.3287 23.1314 29.2874 23.1951 29.2349 23.2491C29.1824 23.3032 29.1197 23.3464 29.0504 23.3765L29.0484 23.3774L29.0416 23.3802C10.7041 31.1802 0.0922421 39.136 1.34732 44.143C3.52439 52.8281 39.0565 51.7196 78.938 41.7225C118.82 31.7254 150.673 15.9423 148.496 7.25726C147.236 2.22922 134.047 0.226546 114.077 2.03119C114.002 2.03836 113.926 2.03079 113.854 2.00891C113.782 1.98702 113.715 1.95125 113.657 1.90364C113.599 1.85603 113.551 1.79751 113.516 1.73143C113.481 1.66535 113.459 1.593 113.452 1.51849C113.445 1.44399 113.453 1.36881 113.476 1.29723C113.498 1.22566 113.534 1.1591 113.582 1.10135C113.631 1.04359 113.69 0.995781 113.757 0.960645C113.823 0.925509 113.896 0.903737 113.972 0.896565L113.973 0.896391L113.977 0.896018C135.174 -1.01936 148.162 1.19738 149.611 6.97781C152.018 16.582 121.291 52.171 79.215 42.8275Z" fill="#63519F"/>
</svg>
