<svg width="150" height="52" viewBox="0 0 150 52" fill="none" xmlns="http://www.w3.org/2000/svg">
<path d="M79.3496 43.3397C37.4678 53.8381 2.72918 54.3576 0.263757 44.5223C-1.21436 38.6257 9.09156 30.4505 28.539 22.0936C28.6081 22.0632 28.6825 22.0469 28.758 22.0457C28.8335 22.0445 28.9086 22.0584 28.979 22.0866C29.0495 22.1148 29.1138 22.1567 29.1684 22.21C29.223 22.2633 29.2668 22.3268 29.2973 22.3971C29.3278 22.4673 29.3443 22.5429 29.346 22.6194C29.3478 22.6959 29.3346 22.7719 29.3073 22.8431C29.2799 22.9142 29.239 22.9791 29.1868 23.0341C29.1347 23.089 29.0722 23.133 29.0031 23.1634L29.0011 23.1642L28.9944 23.1671C10.675 31.0396 0.0932288 39.1153 1.37852 44.2428C3.60801 53.1369 39.1844 52.2051 79.066 42.2081C118.947 32.2111 150.757 16.2515 148.527 7.35738C147.237 2.20834 134.018 0.0854257 114.029 1.81754C113.954 1.82462 113.878 1.81658 113.806 1.79387C113.733 1.77117 113.666 1.73424 113.608 1.68522C113.549 1.6362 113.501 1.57604 113.465 1.50819C113.429 1.44034 113.407 1.36612 113.4 1.2898C113.392 1.21347 113.4 1.13652 113.422 1.06337C113.444 0.990212 113.48 0.922289 113.528 0.863477C113.576 0.804665 113.636 0.756125 113.702 0.720631C113.769 0.685139 113.842 0.66339 113.918 0.656633L113.919 0.656456L113.923 0.656098C135.139 -1.18229 148.158 1.15839 149.642 7.07795C152.108 16.9133 121.231 32.8413 79.3496 43.3397Z" fill="#63519F"/>
</svg>
