<svg width="114" height="112" viewBox="0 0 114 112" fill="none" xmlns="http://www.w3.org/2000/svg">
<path d="M69.6009 68.8176C38.894 99.3223 9.33363 117.58 2.30392 110.383C-1.91064 106.069 2.852 93.7518 15.3709 76.5917C15.4151 76.5301 15.4709 76.4779 15.5351 76.4382C15.5993 76.3985 15.6707 76.3719 15.7453 76.36C15.8198 76.3482 15.896 76.3512 15.9694 76.3691C16.0429 76.3869 16.1123 76.4191 16.1735 76.4639C16.2348 76.5087 16.2867 76.5652 16.3264 76.6302C16.3661 76.6951 16.3928 76.7673 16.4049 76.8425C16.417 76.9177 16.4143 76.9945 16.3969 77.0686C16.3796 77.1426 16.348 77.2124 16.3038 77.274L16.3025 77.2758L16.2982 77.2817C4.50547 93.4467 -0.543588 105.819 3.12122 109.571C9.4782 116.08 39.5517 97.0374 68.7921 67.9896C98.0324 38.9417 117.365 8.90316 111.008 2.395C107.328 -1.37275 94.9202 3.57844 78.6273 15.3169C78.5662 15.3614 78.497 15.3932 78.4235 15.4107C78.3501 15.4281 78.2739 15.4308 78.1994 15.4185C78.1248 15.4063 78.0532 15.3794 77.9889 15.3393C77.9245 15.2992 77.8685 15.2468 77.8241 15.185C77.7797 15.1232 77.7478 15.0532 77.7302 14.9791C77.7126 14.9049 77.7095 14.8281 77.7213 14.7529C77.7332 14.6778 77.7595 14.6058 77.799 14.541C77.8384 14.4763 77.8902 14.42 77.9513 14.3755L77.9527 14.3744L77.9561 14.372C95.2495 1.91289 107.594 -2.74855 111.825 1.58304C118.855 8.77998 100.308 38.3129 69.6009 68.8176Z" fill="#63519F"/>
</svg>
