<svg width="251" height="19" viewBox="0 0 251 19" fill="none" xmlns="http://www.w3.org/2000/svg">
<path d="M117.798 9.91699C117.798 9.12109 117.918 8.40088 118.157 7.75635C118.396 7.11182 118.729 6.5625 119.153 6.1084C120.047 5.16113 121.207 4.6875 122.632 4.6875C124.063 4.6875 125.22 5.16113 126.104 6.1084C127.002 7.07031 127.452 8.33984 127.452 9.91699C127.452 11.4941 127.002 12.7588 126.104 13.7109C125.225 14.6484 124.068 15.1172 122.632 15.1172C121.202 15.1172 120.042 14.6484 119.153 13.7109C118.25 12.7539 117.798 11.4893 117.798 9.91699ZM119.263 9.90967C119.263 11.0229 119.534 11.9434 120.076 12.6709C120.687 13.4814 121.539 13.8867 122.632 13.8867C123.726 13.8867 124.576 13.4814 125.181 12.6709C125.718 11.9531 125.987 11.0376 125.987 9.92432C125.987 8.80127 125.718 7.87598 125.181 7.14844C124.576 6.32812 123.726 5.91797 122.632 5.91797C121.534 5.91797 120.682 6.32812 120.076 7.14844C119.534 7.87598 119.263 8.79639 119.263 9.90967ZM134.19 8.78174C133.921 8.70361 133.599 8.66455 133.223 8.66455C132.852 8.66455 132.547 8.70361 132.308 8.78174C132.068 8.85498 131.858 8.94531 131.678 9.05273C131.346 9.24805 131.104 9.46777 130.953 9.71191V15H129.488V7.44141H130.894L130.953 8.48877C131.319 8.02979 131.854 7.68555 132.557 7.45605C132.811 7.36816 133.101 7.32422 133.428 7.32422C133.755 7.32422 134.009 7.34863 134.19 7.39746V8.78174Z" fill="#EBE9E9"/>
<line y1="9.5" x2="108" y2="9.5" stroke="#9B9B9B" stroke-opacity="0.57"/>
<line x1="143" y1="9.5" x2="251" y2="9.5" stroke="#9B9B9B" stroke-opacity="0.57"/>
</svg>
